<svg version="1.1" xmlns="http://www.w3.org/2000/svg" xmlns:xlink="http://www.w3.org/1999/xlink" width="34" height="23" viewBox="0,0,256,173.17188"><defs><linearGradient x1="1.92667" y1="0" x2="19.7024" y2="29.0178" gradientUnits="userSpaceOnUse" id="color-1"><stop offset="0.25934" stop-color="#2198f2"></stop><stop offset="1" stop-color="#0078d4"></stop></linearGradient></defs><g fill="url(#color-1)" fill-rule="evenodd" stroke="none" stroke-width="1" stroke-linecap="butt" stroke-linejoin="miter" stroke-miterlimit="10" stroke-dasharray="" stroke-dashoffset="0" font-family="none" font-weight="none" font-size="none" text-anchor="none" style="mix-blend-mode: normal"><g transform="translate(0,0.00181) scale(7.52941,7.52941)"><path d="M9.63091,0.14432l1.47569,0.89361c0.2609,0.15802 0.3206,0.51064 0.1283,0.74744c-2.15485,2.65356 -4.11274,5.53093 -4.11295,9.09714c2.94155,0 5.97295,2.4233 5.97295,5.5259c0,4.3339 -3.48438,7.033 -6.96857,6.5306c-3.48419,-0.5023 -5.54555,-3.0141 -5.97276,-6.0283c-0.9797,-6.91218 2.8328,-13.13677 8.44588,-16.75901c0.31277,-0.20184 0.71305,-0.20019 1.03146,-0.00738zM30.5361,0.14432l1.4756,0.89361c0.261,0.15802 0.3206,0.51064 0.1283,0.74744c-2.1548,2.65356 -4.1127,5.53093 -4.1129,9.09714c2.9416,0 5.9729,2.4233 5.9729,5.5259c0,4.3339 -3.4843,7.033 -6.9685,6.5306c-3.4842,-0.5023 -5.5456,-3.0141 -5.9728,-6.0283c-0.9797,-6.91218 2.8328,-13.13677 8.4459,-16.75901c0.3128,-0.20184 0.7131,-0.20019 1.0315,-0.00738z"></path></g></g></svg>