<svg version="1.1" xmlns="http://www.w3.org/2000/svg" xmlns:xlink="http://www.w3.org/1999/xlink" width="40px" height="40px" viewBox="0,0,256,256"><defs><linearGradient x1="3.34" y1="20" x2="36.66" y2="20" gradientUnits="userSpaceOnUse" id="color-1"><stop offset="0.26" stop-color="#0078d4"></stop><stop offset="1" stop-color="#ffbc5e"></stop></linearGradient><linearGradient x1="98.83078" y1="691.19" x2="1283.73978" y2="691.19" gradientUnits="userSpaceOnUse" id="color-2"><stop offset="0.26" stop-color="#0078d4"></stop><stop offset="1" stop-color="#ffbc5e"></stop></linearGradient><linearGradient x1="81.61827" y1="691.19" x2="1300.95228" y2="691.19" gradientUnits="userSpaceOnUse" id="color-3"><stop offset="0.26" stop-color="#0078d4"></stop><stop offset="1" stop-color="#ffbc5e"></stop></linearGradient><linearGradient x1="142.3291" y1="77.464" x2="282.0414" y2="77.464" gradientUnits="userSpaceOnUse" id="color-4"><stop offset="0.26" stop-color="#0078d4"></stop><stop offset="1" stop-color="#ffbc5e"></stop></linearGradient><linearGradient x1="202.4342" y1="145.18111" x2="498.2738" y2="145.18111" gradientUnits="userSpaceOnUse" id="color-5"><stop offset="0.26" stop-color="#0078d4"></stop><stop offset="1" stop-color="#ffbc5e"></stop></linearGradient><linearGradient x1="196.0628" y1="145.18111" x2="504.8174" y2="145.18111" gradientUnits="userSpaceOnUse" id="color-6"><stop offset="0.26" stop-color="#0078d4"></stop><stop offset="1" stop-color="#ffbc5e"></stop></linearGradient></defs><g fill="none" fill-rule="nonzero" stroke="none" stroke-width="none" stroke-linecap="butt" stroke-linejoin="miter" stroke-miterlimit="10" stroke-dasharray="" stroke-dashoffset="0" font-family="none" font-weight="none" font-size="none" text-anchor="none" style="mix-blend-mode: normal"><g transform="translate(0.01605,0) scale(6.4,6.4)"><path d="M34.87,16.43h-1.78c-1.65685,0 -3,-1.34315 -3,-3v-1.16c0.00265,-2.36746 -0.93596,-4.63887 -2.60907,-6.31386c-1.67311,-1.67499 -3.94347,-2.61614 -6.31093,-2.61614h-8.9c-4.9319,0 -8.93,3.9981 -8.93,8.93v16.06c0,4.60053 3.72947,8.33 8.33,8.33h16.66c4.60053,0 8.33,-3.72947 8.33,-8.33v-10.11c0,-0.98859 -0.80141,-1.79 -1.79,-1.79zM13.46,12.27h7.13c0.66961,-0.05015 1.31097,0.27867 1.6611,0.85165c0.35013,0.57298 0.35013,1.29372 0,1.8667c-0.35013,0.57298 -0.99149,0.90181 -1.6611,0.85165h-7.13c-0.66961,0.05015 -1.31097,-0.27867 -1.6611,-0.85165c-0.35013,-0.57298 -0.35013,-1.29372 0,-1.8667c0.35013,-0.57298 0.99149,-0.90181 1.6611,-0.85165zM26,27.73h-12.54c-0.66961,0.05015 -1.31097,-0.27867 -1.6611,-0.85165c-0.35013,-0.57298 -0.35013,-1.29372 0,-1.8667c0.35013,-0.57298 0.99149,-0.90181 1.6611,-0.85165h12.54c0.93411,0.06997 1.6563,0.84828 1.6563,1.785c0,0.93672 -0.72219,1.71503 -1.6563,1.785z" fill="url(#color-1)" stroke="none" stroke-width="1" opacity="0.15"></path><path d="M34.87,15.87h-1.78c-0.6409,0.00266 -1.25647,-0.25008 -1.7106,-0.70233c-0.45413,-0.45225 -0.70941,-1.06676 -0.7094,-1.70767v-1.19c-0.00551,-5.23337 -4.24663,-9.47449 -9.48,-9.48h-8.92c-5.23337,0.00551 -9.47449,4.24663 -9.48,9.48v12.49c-0.02907,0.21607 0.0699,0.42937 0.25367,0.54668c0.18376,0.11731 0.4189,0.11731 0.60267,0c0.18376,-0.11731 0.28274,-0.33061 0.25367,-0.54668v-12.49c0,-4.62262 3.74738,-8.37 8.37,-8.37h8.92c4.62034,0.00551 8.36449,3.74966 8.37,8.37v1.19c-0.00001,1.95119 1.57882,3.53449 3.53,3.54h1.78c0.67931,0 1.23,0.55069 1.23,1.23v10.1c-0.00551,4.28897 -3.48103,7.76449 -7.77,7.77h-16.66c-4.28897,-0.00551 -7.76449,-3.48103 -7.77,-7.77v-1.19c0.02907,-0.21607 -0.0699,-0.42937 -0.25367,-0.54668c-0.18376,-0.11731 -0.4189,-0.11731 -0.60267,0c-0.18376,0.11731 -0.28274,0.33061 -0.25367,0.54668v1.19c0.00551,4.902 3.978,8.87449 8.88,8.88h16.66c4.902,-0.00551 8.87449,-3.978 8.88,-8.88v-10.11c0.00001,-1.29397 -1.04604,-2.34449 -2.34,-2.35z" fill="url(#color-2)" stroke="url(#color-3)" stroke-width="1"></path><path d="M13.46,16.39h7.13c1.29235,0 2.34,-1.04765 2.34,-2.34c0,-1.29235 -1.04765,-2.34 -2.34,-2.34h-7.13c-1.29235,0 -2.34,1.04765 -2.34,2.34c0,1.29235 1.04765,2.34 2.34,2.34zM13.46,12.82h7.13c0.67931,0 1.23,0.55069 1.23,1.23c0,0.67931 -0.55069,1.23 -1.23,1.23h-7.13c-0.67931,0 -1.23,-0.55069 -1.23,-1.23c0,-0.67931 0.55069,-1.23 1.23,-1.23z" fill="url(#color-4)" stroke="none" stroke-width="1"></path><path d="M13.46,28.29h12.54c1.29235,0 2.34,-1.04765 2.34,-2.34c0,-1.29235 -1.04765,-2.34 -2.34,-2.34h-3c-0.27792,0.03739 -0.48533,0.27458 -0.48533,0.555c0,0.28042 0.20742,0.51761 0.48533,0.555h3c0.67931,0 1.23,0.55069 1.23,1.23c0,0.67931 -0.55069,1.23 -1.23,1.23h-12.54c-0.67931,0 -1.23,-0.55069 -1.23,-1.23c0,-0.67931 0.55069,-1.23 1.23,-1.23h7.13c0.21607,0.02907 0.42937,-0.0699 0.54668,-0.25367c0.11731,-0.18376 0.11731,-0.4189 0,-0.60267c-0.11731,-0.18376 -0.33061,-0.28274 -0.54668,-0.25367h-7.13c-1.29235,0 -2.34,1.04765 -2.34,2.34c0,1.29235 1.04765,2.34 2.34,2.34z" fill="url(#color-5)" stroke="url(#color-6)" stroke-width="0.75"></path></g></g></svg>