<svg version="1.1" xmlns="http://www.w3.org/2000/svg" xmlns:xlink="http://www.w3.org/1999/xlink" width="42" height="42" viewBox="0,0,256,256"><defs><linearGradient x1="3.26667" y1="1" x2="37.8" y2="39.1334" gradientUnits="userSpaceOnUse" id="color-1"><stop offset="0.25934" stop-color="#0078d4"></stop><stop offset="1" stop-color="#0078d4"></stop></linearGradient><linearGradient x1="29.602" y1="29.21" x2="36.1781" y2="36.4484" gradientUnits="userSpaceOnUse" id="color-2"><stop offset="0.25934" stop-color="#ffdb6e"></stop><stop offset="1" stop-color="#ffbc5e"></stop></linearGradient><linearGradient x1="29.602" y1="29.21" x2="36.1781" y2="36.4484" gradientUnits="userSpaceOnUse" id="color-3"><stop offset="0.25934" stop-color="#0078d4"></stop><stop offset="1" stop-color="#0078d4"></stop></linearGradient><linearGradient x1="3.26667" y1="1" x2="37.8" y2="39.1334" gradientUnits="userSpaceOnUse" id="color-4"><stop offset="0.25934" stop-color="#ffdb6e"></stop><stop offset="1" stop-color="#ffbc5e"></stop></linearGradient><linearGradient x1="3.26667" y1="1" x2="37.8" y2="39.1334" gradientUnits="userSpaceOnUse" id="color-5"><stop offset="0.25934" stop-color="#0078d4"></stop><stop offset="1" stop-color="#0078d4"></stop></linearGradient></defs><g fill="none" fill-rule="none" stroke="none" stroke-width="none" stroke-linecap="butt" stroke-linejoin="miter" stroke-miterlimit="10" stroke-dasharray="" stroke-dashoffset="0" font-family="none" font-weight="none" font-size="none" text-anchor="none" style="mix-blend-mode: normal"><g transform="translate(-0.0003,0) scale(6.09524,6.09524)"><path d="M40.6377,19.814c-0.2194,-0.0912 -0.4719,-0.0408 -0.6399,0.1276l-1.7584,1.7641v-11.99409c0,-0.32533 -0.2628,-0.589 -0.5871,-0.589h-4.511l1.6375,-1.64276l0.0007,-0.00079l1.5778,-1.58289c0.3381,-0.33913 0.5243,-0.79026 0.5243,-1.26993c0,-0.47966 -0.1862,-0.93064 -0.5243,-1.26993l-1.8245,-1.8304c-0.338,-0.33914 -0.7877,-0.52591 -1.2659,-0.52591c-0.4781,0 -0.9277,0.18677 -1.2658,0.52591l-1.5786,1.58367l-1.9075,1.91364l-4.0862,4.09932h-18.2241v-5.8269c0,-0.32534 -0.26289,-0.58899 -0.58711,-0.58899c-2.5461,0.00016 -4.61759,2.07815 -4.61759,4.63259v25.01666c0,0.0435 0.005,0.0858 0.01391,0.1266c0.08109,1.0839 0.54851,2.0909 1.32969,2.8554c0.835,0.817 1.93727,1.2669 3.10383,1.2669h17.94047l-3.3788,3.3898c-0.1679,0.1684 -0.2181,0.4216 -0.1273,0.6418c0.0909,0.2201 0.305,0.3636 0.5425,0.3636h19.9887c0.3242,0 0.5871,-0.2636 0.5871,-0.589v-20.0528c0,-0.2382 -0.1431,-0.453 -0.3624,-0.5442zM32.8315,2.35897c0.24,-0.24093 0.6311,-0.24093 0.8711,0l1.8246,1.83048c0.2401,0.24085 0.2401,0.63297 0,0.8739l-1.1634,1.16718l-2.6958,-2.70438zM30.8377,4.35913l2.6957,2.7043l-1.0772,1.08074l-2.6956,-2.7043zM18.3967,21.76l-1.6817,0.5956l-1.1205,-1.1241l0.5937,-1.6871zM35.8293,30.1707l-5.6586,5.6586c-0.063,0.063 -0.0184,0.1707 0.0707,0.1707h5.7586v-5.7586c0,-0.0891 -0.1077,-0.1337 -0.1707,-0.0707zM16,18.5l3.5,3.5l13,-13l-3.5,-3.5z" fill="url(#color-1)" fill-rule="evenodd" stroke="none" stroke-width="1" opacity="0.15"></path><path d="M36.3998,29.2549c-0.2194,-0.0912 -0.4719,-0.0408 -0.6398,0.1276l-6.4161,6.4368c-0.1679,0.1685 -0.2182,0.4218 -0.1272,0.6419c0.0908,0.2202 0.305,0.3636 0.5424,0.3636h6.4161c0.3243,0 0.5871,-0.2637 0.5871,-0.589v-6.4368c-0.0001,-0.2381 -0.1431,-0.4529 -0.3625,-0.5441zM31.1763,35.6469l4.4116,-4.4259v4.4259z" fill="url(#color-2)" fill-rule="nonzero" stroke="url(#color-3)" stroke-width="0.25"></path><path d="M40.6377,19.814c-0.2194,-0.0912 -0.4719,-0.0408 -0.6399,0.1276l-1.7584,1.7641v-11.99409c0,-0.32533 -0.2628,-0.589 -0.5871,-0.589h-4.511l1.6375,-1.64276c0.0003,-0.00023 0.0005,-0.00056 0.0007,-0.00079l1.5778,-1.58289c0.3381,-0.33913 0.5243,-0.79026 0.5243,-1.26993c0,-0.47966 -0.1862,-0.93064 -0.5243,-1.26993l-1.8245,-1.8304c-0.338,-0.33914 -0.7877,-0.52591 -1.2659,-0.52591c-0.4781,0 -0.9277,0.18677 -1.2658,0.52591l-1.5786,1.58367l-1.9075,1.91364l-4.0862,4.09932h-18.2241v-5.8269c0,-0.32534 -0.26289,-0.58899 -0.58711,-0.58899c-2.5461,0.00016 -4.61759,2.07815 -4.61759,4.63259v25.01666c0,0.0435 0.005,0.0858 0.01391,0.1266c0.08109,1.0839 0.54851,2.0909 1.32969,2.8554c0.835,0.817 1.93727,1.2669 3.10383,1.2669h17.94047l-3.3788,3.3898c-0.1679,0.1684 -0.2181,0.4216 -0.1273,0.6418c0.0909,0.2201 0.305,0.3636 0.5425,0.3636h19.9887c0.3242,0 0.5871,-0.2636 0.5871,-0.589v-20.0528c0,-0.2382 -0.1431,-0.453 -0.3624,-0.5442zM32.8315,2.35897c0.24,-0.24093 0.6311,-0.24093 0.8711,0l1.8246,1.83048c0.2401,0.24085 0.2401,0.63297 0,0.8739l-1.1634,1.16718l-2.6958,-2.70438zM30.8377,4.35913l2.6957,2.7043l-1.0772,1.08074l-2.6956,-2.7043zM39.826,26.9764h-1.0832c-0.3243,0 -0.5871,0.2637 -0.5871,0.589c0,0.3254 0.2628,0.589 0.5871,0.589h1.0832v1.7749h-1.0832c-0.3243,0 -0.5871,0.2638 -0.5871,0.5891c0,0.3253 0.2628,0.589 0.5871,0.589h1.0832v1.7748h-1.0832c-0.3243,0 -0.5871,0.2636 -0.5871,0.589c0,0.3253 0.2628,0.589 0.5871,0.589h1.0832v1.7749h-1.0832c-0.3243,0 -0.5871,0.2637 -0.5871,0.589c0,0.3254 0.2628,0.589 0.5871,0.589h1.0832v2.8091h-17.9844l5.9303,-5.9492c0.2293,-0.2302 0.2293,-0.603 0,-0.833c-0.0263,-0.0265 -0.0546,-0.0494 -0.0842,-0.0697c-0.2286,-0.157 -0.5431,-0.134 -0.7462,0.0697l-2.3793,2.387h-19.11469c-1.78063,0 -3.21407,-1.3946 -3.27048,-3.1777c0.00336,-0.112 0.01203,-0.223 0.02594,-0.3327c0.00008,-0.0006 0.00016,-0.0012 0.00024,-0.0019c0.00656,-0.0521 0.01445,-0.104 0.02343,-0.1555c0.00102,-0.0059 0.00211,-0.0119 0.00313,-0.0177c0.0082,-0.046 0.01742,-0.0918 0.0275,-0.1374c0.00281,-0.0127 0.00578,-0.0254 0.00875,-0.038c0.0089,-0.0386 0.01851,-0.0769 0.02883,-0.1151c0.00562,-0.0207 0.01148,-0.0411 0.0175,-0.0617c0.00859,-0.03 0.0175,-0.0598 0.02695,-0.0894c0.00945,-0.0295 0.01953,-0.0588 0.02977,-0.088c0.0071,-0.0204 0.01414,-0.0409 0.02179,-0.0612c0.0143,-0.0386 0.02946,-0.0767 0.04508,-0.1146c0.00445,-0.0109 0.00883,-0.0219 0.01344,-0.0328c0.02008,-0.0471 0.04094,-0.0935 0.06297,-0.1395c0.00093,-0.0019 0.00179,-0.0039 0.00273,-0.0058c0.45922,-0.9534 1.34243,-1.6642 2.40235,-1.8848c0.00297,-0.0006 0.00594,-0.0013 0.00891,-0.002c0.04859,-0.0099 0.09765,-0.0184 0.14703,-0.0263c0.0082,-0.0013 0.0164,-0.0031 0.02476,-0.0043c0.04461,-0.0068 0.08969,-0.0121 0.13477,-0.0172c0.01266,-0.0014 0.02523,-0.0034 0.03797,-0.0046c0.04351,-0.0044 0.08742,-0.0073 0.13133,-0.0101c0.0139,-0.0009 0.02781,-0.0023 0.04172,-0.003c0.0575,-0.0029 0.11546,-0.0044 0.17367,-0.0044c0.32422,0 0.58711,-0.2636 0.58711,-0.589v-4.2707c0,-0.3253 -0.26289,-0.5889 -0.58711,-0.5889c-0.32422,0 -0.58711,0.2636 -0.58711,0.5889v3.7188c-0.99141,0.1258 -1.91165,0.5694 -2.63727,1.2803c-0.07633,0.0747 -0.14868,0.1525 -0.21915,0.2315v-21.93296c0,-1.70398 1.23641,-3.12393 2.85634,-3.40436v17.75092c0,0.3252 0.26289,0.589 0.58711,0.589c0.32422,0 0.58711,-0.2638 0.58711,-0.589v-11.3852h17.05008l-3.2457,3.2561c-0.2293,0.2301 -0.2293,0.603 0,0.833c0.2293,0.2299 0.601,0.2299 0.8303,0l4.2479,-4.2616c0.0001,-0.0001 0.0002,-0.0003 0.0003,-0.0004l3.8426,-3.85492l2.6956,2.70437l-0.3163,0.31726c-0.0002,0.00024 -0.0005,0.00047 -0.0007,0.00072l-11.8382,11.87637l-2.6956,-2.7043l2.3334,-2.3409c0.2293,-0.2302 0.2293,-0.603 0,-0.833c-0.2293,-0.2299 -0.601,-0.2299 -0.8302,0l-2.7487,2.7574c-0.0147,0.0148 -0.0284,0.0303 -0.0413,0.0463c-0.0043,0.0054 -0.0081,0.0111 -0.0122,0.0166c-0.0083,0.0111 -0.0164,0.0222 -0.024,0.0338c-0.0043,0.0068 -0.0082,0.0137 -0.0123,0.0206c-0.0064,0.011 -0.0127,0.0222 -0.0184,0.0335c-0.0037,0.0073 -0.0071,0.0149 -0.0105,0.0225c-0.0053,0.0115 -0.0101,0.0233 -0.0146,0.035c-0.0015,0.0042 -0.0036,0.0081 -0.0051,0.0122l-1.1438,3.2508l-0.7798,2.2164c-0.0103,0.0294 -0.0178,0.0594 -0.0233,0.0896h-1.9525c-0.3242,0 -0.5871,0.2636 -0.5871,0.5889c0,0.3254 0.2629,0.589 0.5871,0.589h16.2589c0.3243,0 0.5871,-0.2636 0.5871,-0.589c0,-0.3253 -0.2628,-0.5889 -0.5871,-0.5889h-11.6651l3.5805,-1.2681c0.003,-0.001 0.0058,-0.0025 0.0087,-0.0036c0.014,-0.0052 0.0276,-0.0111 0.0411,-0.0172c0.0054,-0.0025 0.0108,-0.0049 0.0161,-0.0075c0.014,-0.007 0.0278,-0.0148 0.0414,-0.0231c0.0044,-0.0027 0.0089,-0.0051 0.0132,-0.0078c0.0142,-0.0091 0.0279,-0.0191 0.0415,-0.0296c0.0033,-0.0025 0.0068,-0.0048 0.0101,-0.0075c0.0163,-0.0132 0.0323,-0.0273 0.0475,-0.0426l12.0816,-12.1203h5.0981v12.583l-8.3982,8.4252c-0.2293,0.2302 -0.2293,0.603 0,0.833c0.0143,0.0144 0.0292,0.0279 0.0446,0.0404c0.1077,0.0881 0.2392,0.1322 0.3706,0.1322c0.1314,0 0.2629,-0.0441 0.3705,-0.1322c0.0154,-0.0125 0.0303,-0.026 0.0446,-0.0404l0.0003,-0.0002l10.3284,-10.3618zM18.3967,21.76l-1.6817,0.5956l-1.1205,-1.1241l0.5937,-1.6871z" fill="url(#color-4)" fill-rule="nonzero" stroke="url(#color-5)" stroke-width="0.25"></path></g></g></svg>