<svg version="1.1" xmlns="http://www.w3.org/2000/svg" xmlns:xlink="http://www.w3.org/1999/xlink" width="40px" height="40px" viewBox="0,0,256,256"><defs><linearGradient x1="0.76" y1="8.94" x2="38.59" y2="30.81" gradientUnits="userSpaceOnUse" id="color-1"><stop offset="0.26" stop-color="#0078d4"></stop><stop offset="1" stop-color="#ffbc5e"></stop></linearGradient><linearGradient x1="17.2602" y1="613.19" x2="1549.1998" y2="613.19" gradientUnits="userSpaceOnUse" id="color-2"><stop offset="0.26" stop-color="#0078d4"></stop><stop offset="1" stop-color="#ffbc5e"></stop></linearGradient></defs><g fill="none" fill-rule="evenodd" stroke="none" stroke-width="1" stroke-linecap="butt" stroke-linejoin="miter" stroke-miterlimit="10" stroke-dasharray="" stroke-dashoffset="0" font-family="none" font-weight="none" font-size="none" text-anchor="none" style="mix-blend-mode: normal"><g transform="scale(6.4,6.4)"><path d="M2.11,6v28.65h36.6v-28.65z" fill="url(#color-1)" opacity="0.15"></path><path d="M3.08,4.79h33.84c1.46355,0 2.65,1.18645 2.65,2.65v25.12c0,1.46355 -1.18645,2.65 -2.65,2.65h-33.84c-1.46355,0 -2.65,-1.18645 -2.65,-2.65v-25.12c0,-1.46355 1.18645,-2.65 2.65,-2.65zM4.44,13.37h30.83v13.09h-30.83zM10.69,17.11h1.9v4c0.00544,0.37688 -0.05202,0.75202 -0.17,1.11c-0.10608,0.34225 -0.28714,0.65655 -0.53,0.92c-0.21478,0.23584 -0.47725,0.42332 -0.77,0.55c-0.42508,0.15809 -0.87665,0.23279 -1.33,0.22c-0.33419,-0.00142 -0.66804,-0.02145 -1,-0.06c-0.31186,-0.03546 -0.61401,-0.13052 -0.89,-0.28c-0.25201,-0.14152 -0.47036,-0.33599 -0.64,-0.57c-0.19007,-0.22445 -0.32987,-0.48701 -0.41,-0.77c-0.11135,-0.36325 -0.17193,-0.74015 -0.18,-1.12v-4h1.91v4.05c-0.0219,0.30911 0.07868,0.61442 0.28,0.85c0.19963,0.21001 0.48054,0.3231 0.77,0.31c0.28791,0.01569 0.56859,-0.09367 0.77,-0.3c0.20007,-0.24021 0.3003,-0.54805 0.28,-0.86v-4.05zM13.93,17.11h1.92v6.65h-1.92zM18.14,17h0.86l-1.56,6.88h-0.86zM23.63,17.12h1.9v4c0.00045,0.37652 -0.05688,0.75088 -0.17,1.11c-0.10994,0.34274 -0.29435,0.65692 -0.54,0.92c-0.20931,0.23754 -0.46894,0.42543 -0.76,0.55c-0.42854,0.15815 -0.88339,0.23283 -1.34,0.22c-0.3342,-0.0011 -0.66807,-0.02113 -1,-0.06c-0.31186,-0.03546 -0.61401,-0.13052 -0.89,-0.28c-0.5116,-0.29478 -0.89091,-0.77428 -1.06,-1.34c-0.11135,-0.36325 -0.17193,-0.74015 -0.18,-1.12v-4h1.91v4.05c-0.0219,0.30911 0.07868,0.61442 0.28,0.85c0.19963,0.21001 0.48054,0.3231 0.77,0.31c0.29133,0.01864 0.57625,-0.09094 0.78,-0.3c0.1957,-0.24259 0.29536,-0.54869 0.28,-0.86v-4.06zM26.37,17.12h2.1l1.1,2l1.06,-2h2.08l-1.92,3.22l2.1,3.43h-2.15l-1.21,-2.14l-1.22,2.14h-2.13l2.13,-3.47zM21.73,31.45c-0.57503,-0.05452 -1.01429,-0.53739 -1.01429,-1.115c0,-0.57761 0.43926,-1.06048 1.01429,-1.115h12.63c0.57503,0.05452 1.01429,0.53739 1.01429,1.115c0,0.57761 -0.43926,1.06048 -1.01429,1.115zM5.19,31.45c-0.57503,-0.05452 -1.01429,-0.53739 -1.01429,-1.115c0,-0.57761 0.43926,-1.06048 1.01429,-1.115h11.71c0.57503,0.05452 1.01429,0.53739 1.01429,1.115c0,0.57761 -0.43926,1.06048 -1.01429,1.115zM38,11.19h-35.89v21.63c-0.00093,0.19417 0.07449,0.38093 0.21,0.52c0.14022,0.13373 0.32623,0.20885 0.52,0.21h34.42c0.19459,0.00316 0.38217,-0.0726 0.52,-0.21c0.14206,-0.13547 0.2217,-0.32371 0.22,-0.52zM34.4,6.75c0.72349,0 1.31,0.58651 1.31,1.31c0,0.72349 -0.58651,1.31 -1.31,1.31c-0.72349,0 -1.31,-0.58651 -1.31,-1.31c0,-0.72349 0.58651,-1.31 1.31,-1.31zM25.53,6.75c0.72349,0 1.31,0.58651 1.31,1.31c0,0.72349 -0.58651,1.31 -1.31,1.31c-0.72349,0 -1.31,-0.58651 -1.31,-1.31c0,-0.72349 0.58651,-1.31 1.31,-1.31zM29.97,6.75c0.72349,0 1.31,0.58651 1.31,1.31c0,0.72349 -0.58651,1.31 -1.31,1.31c-0.72349,0 -1.31,-0.58651 -1.31,-1.31c-0.00289,-0.35356 0.13836,-0.69304 0.39118,-0.9402c0.25282,-0.24716 0.59542,-0.38069 0.94882,-0.3698z" fill="url(#color-2)"></path></g></g></svg>