<svg version="1.1" xmlns="http://www.w3.org/2000/svg" xmlns:xlink="http://www.w3.org/1999/xlink" width="42" height="32" viewBox="0,0,256,195.04688"><defs><linearGradient x1="3.69867" y1="4.89825" x2="22.5688" y2="37.2522" gradientUnits="userSpaceOnUse" id="color-1"><stop offset="0.25934" stop-color="#0078d4"></stop><stop offset="1" stop-color="#0078d4"></stop></linearGradient><linearGradient x1="1.17724" y1="18.7359" x2="2.78931" y2="19.2346" gradientUnits="userSpaceOnUse" id="color-2"><stop offset="0.25934" stop-color="#ffdb6e"></stop><stop offset="1" stop-color="#ffbc5e"></stop></linearGradient><linearGradient x1="1.17724" y1="18.7359" x2="2.78931" y2="19.2346" gradientUnits="userSpaceOnUse" id="color-3"><stop offset="0.25934" stop-color="#0078d4"></stop><stop offset="1" stop-color="#0078d4"></stop></linearGradient><linearGradient x1="3.26667" y1="0.90003" x2="27.6816" y2="36.6089" gradientUnits="userSpaceOnUse" id="color-4"><stop offset="0.25934" stop-color="#ffdb6e"></stop><stop offset="1" stop-color="#ffbc5e"></stop></linearGradient><linearGradient x1="3.26667" y1="0.90003" x2="27.6816" y2="36.6089" gradientUnits="userSpaceOnUse" id="color-5"><stop offset="0.25934" stop-color="#0078d4"></stop><stop offset="1" stop-color="#0078d4"></stop></linearGradient><linearGradient x1="14.1208" y1="12.223" x2="27.511" y2="27.0155" gradientUnits="userSpaceOnUse" id="color-6"><stop offset="0.25934" stop-color="#ffdb6e"></stop><stop offset="1" stop-color="#ffbc5e"></stop></linearGradient><linearGradient x1="14.1208" y1="12.223" x2="27.511" y2="27.0155" gradientUnits="userSpaceOnUse" id="color-7"><stop offset="0.25934" stop-color="#0078d4"></stop><stop offset="1" stop-color="#0078d4"></stop></linearGradient><linearGradient x1="16.2288" y1="14.5995" x2="25.5157" y2="24.8592" gradientUnits="userSpaceOnUse" id="color-8"><stop offset="0.25934" stop-color="#ffdb6e"></stop><stop offset="1" stop-color="#ffbc5e"></stop></linearGradient><linearGradient x1="16.2288" y1="14.5995" x2="25.5157" y2="24.8592" gradientUnits="userSpaceOnUse" id="color-9"><stop offset="0.25934" stop-color="#0078d4"></stop><stop offset="1" stop-color="#0078d4"></stop></linearGradient></defs><g fill="none" fill-rule="none" stroke="none" stroke-width="none" stroke-linecap="butt" stroke-linejoin="miter" stroke-miterlimit="10" stroke-dasharray="" stroke-dashoffset="0" font-family="none" font-weight="none" font-size="none" text-anchor="none" style="mix-blend-mode: normal"><g transform="translate(-0.0003,-0.00045) scale(6.09524,6.09524)"><path d="M1.5,6.89825c0,-1.10456 0.89543,-2 2,-2h34.8c1.1046,0 2,0.89544 2,2v20.98885c0,1.1046 -0.8954,2 -2,2h-14.0892c4.2285,-1.356 7.2892,-5.3185 7.2892,-9.9955c0,-5.7964 -4.701,-10.49535 -10.5,-10.49535c-5.799,0 -10.5,4.69895 -10.5,10.49535c0,4.677 3.0607,8.6395 7.2892,9.9955h-14.2892c-1.10457,0 -2,-0.8954 -2,-2zM21,24.8894c2.7614,0 5,-2.2376 5,-4.9978c0,-2.7602 -2.2386,-4.9978 -5,-4.9978c-2.7614,0 -5,2.2376 -5,4.9978c0,2.7602 2.2386,4.9978 5,4.9978z" fill="url(#color-1)" fill-rule="evenodd" stroke="none" stroke-width="1" opacity="0.15"></path><path d="M2.04688,21.5655c0,0.2544 -0.20649,0.4608 -0.46094,0.4608c-0.25445,0 -0.46094,-0.2064 -0.46094,-0.4608v-2.3689c0,-0.2546 0.20645,-0.4607 0.46094,-0.4607c0.25449,0 0.46094,0.2061 0.46094,0.4607z" fill="url(#color-2)" fill-rule="nonzero" stroke="url(#color-3)" stroke-width="0.25"></path><path d="M38.7448,4.72371h-2.427v-0.27637c0,-0.78273 -0.6372,-1.41996 -1.4206,-1.41996h-0.2488v-0.70739c0,-0.78304 -0.6375,-1.41997 -1.4206,-1.41997h-2.7993c-0.7831,0 -1.4206,0.63693 -1.4206,1.41997v0.70739h-0.2488c-0.7833,0 -1.4205,0.63692 -1.4205,1.41996v0.27637h-8.3402v-0.61008c0,-0.78273 -0.6372,-1.41997 -1.4206,-1.41997h-1.1298c-0.7831,0 -1.4206,0.63693 -1.4206,1.41997v0.61008h-1.3708v-1.44437c0,-0.78273 -0.6372,-1.41996 -1.4206,-1.41996h-6.13772c-0.78309,0 -1.4206,0.63723 -1.4206,1.41996v1.44437h-1.42243c-1.24359,0 -2.25525,1.01152 -2.25525,2.25426v9.66803c0,0.3236 0.26245,0.5856 0.58594,0.5856c0.32349,0 0.58594,-0.262 0.58594,-0.5856v-5.5622h3.20679c0.25787,0.9438 1.12305,1.6399 2.14783,1.6399c1.02509,0 1.88996,-0.6961 2.14783,-1.6399h4.65337c-2.703,2.031 -4.45439,5.262 -4.45439,8.8944c0,2.3848 0.75499,4.5963 2.03829,6.4092h-9.73972v-2.2713c0,-0.3236 -0.26245,-0.5857 -0.58594,-0.5857c-0.32349,0 -0.58594,0.2621 -0.58594,0.5857v3.6635c0,1.243 1.01166,2.2543 2.25525,2.2543h12.99385c1.4416,0.6833 3.0523,1.0661 4.7509,1.0661c1.6993,0 3.3103,-0.3831 4.7522,-1.067c0.0046,0.0003 0.0089,0.0009 0.0135,0.0009h12.9791c1.2436,0 2.2553,-1.0113 2.2553,-2.2543v-20.80163c0,-1.24274 -1.0117,-2.25426 -2.2553,-2.25426zM30.1797,2.31999c0,-0.13696 0.1117,-0.24861 0.2491,-0.24861h2.799c0.1371,0 0.2488,0.11134 0.2488,0.24861v0.70739h-3.2965v-0.70739zM28.5104,4.44734c0,-0.13696 0.1117,-0.24861 0.2491,-0.24861h6.1377c0.137,0 0.2487,0.11165 0.2487,0.24861v0.27637h-6.6352v-0.27637zM16.1993,4.11363c0,-0.13696 0.1117,-0.24861 0.2487,-0.24861h1.1298c0.1373,0 0.2487,0.11165 0.2487,0.24861v0.61008h-1.6272zM5.84956,3.27934c0,-0.13696 0.11169,-0.24861 0.24872,-0.24861h6.13802c0.137,0 0.2487,0.11165 0.2487,0.24861v1.44437h-6.63544zM7.5265,11.5523c-0.58136,0 -1.05469,-0.4728 -1.05469,-1.0541c0,-0.58117 0.47333,-1.05429 1.05469,-1.05429c0.58167,0 1.05469,0.47312 1.05469,1.05429c0,0.5813 -0.47302,1.0541 -1.05469,1.0541zM9.67433,9.91246c-0.25787,-0.9438 -1.12274,-1.6399 -2.14783,-1.6399c-1.02509,0 -1.88996,0.6961 -2.14783,1.6399h-3.20679v-2.93449c0,-0.59697 0.48614,-1.0829 1.08337,-1.0829h35.48955c0.5973,0 1.0834,0.48593 1.0834,1.0829v2.93449h-1.7438v-2.12797c0,-0.32334 -0.2624,-0.58567 -0.5859,-0.58567h-5.4532c-0.3235,0 -0.5859,0.26233 -0.5859,0.58567v2.12797h-5.7328c-1.4639,-0.68695 -3.0756,-1.05575 -4.7266,-1.05575c-1.69,0 -3.2928,0.37916 -4.7287,1.05575zM32.6312,9.91246v-1.54229h4.2813v1.54229zM3.25525,28.8625c-0.59723,0 -1.08337,-0.4859 -1.08337,-1.0829v-0.2208h10.69462c0.4434,0.4752 0.9277,0.9117 1.4474,1.3037zM11.0452,19.9785c0,-5.4868 4.4659,-9.9504 9.9548,-9.9504c2.847,0 5.5637,1.2231 7.454,3.3557c0.2145,0.2422 0.5847,0.2648 0.827,0.0501c0.2423,-0.2145 0.2646,-0.5845 0.0501,-0.8268c-0.5027,-0.567 -1.0581,-1.0758 -1.655,-1.5233h12.1521v15.3036h-9.7397c0.8948,-1.2641 1.532,-2.7222 1.8362,-4.2977h1.5329c0.8643,0 1.5677,-0.7029 1.5677,-1.567v-1.459c0,-0.8642 -0.7031,-1.567 -1.5677,-1.567h-1.6128c-0.213,-0.9319 -0.5438,-1.8357 -0.9879,-2.6807c-0.1504,-0.2864 -0.5047,-0.3969 -0.791,-0.2461c-0.2865,0.1503 -0.397,0.5041 -0.2466,0.7906c0.7428,1.4142 1.1356,3.0111 1.1356,4.618c0,5.4867 -4.4657,9.9504 -9.9549,9.9504c-5.4889,0 -9.9548,-4.464 -9.9548,-9.9504zM32.0483,18.6678h1.4093c0.2182,0 0.3959,0.1775 0.3959,0.3956v1.4593c0,0.2181 -0.1777,0.3957 -0.3959,0.3957h-1.3711c0.0262,-0.31 0.0403,-0.6236 0.0403,-0.9402c0,-0.4383 -0.0266,-0.876 -0.0785,-1.3104zM38.7448,28.8625h-11.0587c0.5198,-0.392 1.0041,-0.8285 1.4475,-1.3037h10.6946v0.2208c0,0.597 -0.4861,1.0829 -1.0834,1.0829z" fill="url(#color-4)" fill-rule="nonzero" stroke="url(#color-5)" stroke-width="0.25"></path><path d="M13.2415,19.9785c0,-4.2763 3.4804,-7.7555 7.7586,-7.7555c4.2782,0 7.7586,3.4792 7.7586,7.7555c0,4.276 -3.4804,7.7551 -7.7586,7.7551c-4.2782,0 -7.7586,-3.4791 -7.7586,-7.7551zM14.1633,19.9785c0,3.7682 3.0669,6.8336 6.8368,6.8336c3.7699,0 6.8367,-3.0654 6.8367,-6.8336c0,-3.7682 -3.0668,-6.834 -6.8367,-6.834c-3.7699,0 -6.8368,3.0658 -6.8368,6.834z" fill="url(#color-6)" fill-rule="nonzero" stroke="url(#color-7)" stroke-width="0.25"></path><path d="M15.6189,19.9785c0,-2.9659 2.4141,-5.379 5.381,-5.379c2.9672,0 5.3813,2.4131 5.3813,5.379c0,2.9658 -2.4141,5.3786 -5.3813,5.3786c-2.9672,0 -5.381,-2.4128 -5.381,-5.3786zM16.5408,19.9785c0,2.4578 2.0002,4.4571 4.4591,4.4571c2.4589,0 4.4594,-1.9993 4.4594,-4.4571c0,-2.4581 -2.0005,-4.4575 -4.4594,-4.4575c-2.4589,0 -4.4591,1.9994 -4.4591,4.4575z" fill="url(#color-8)" fill-rule="nonzero" stroke="url(#color-9)" stroke-width="0.25"></path></g></g></svg>